<mxfile modified="2022-05-02T07:41:35.563Z" host="app.diagrams.net" agent="5.0 (Windows NT 10.0; Win64; x64) AppleWebKit/537.36 (KHTML, like Gecko) Chrome/100.0.4896.127 Safari/537.36 Edg/100.0.1185.50" etag="N3OacoJcRn_Mm6TLhbca" compressed="false" version="17.5.0" type="google">
  <diagram id="8L541EdsbeDXdFoWc_Jd" name="SDLC &quot;Waterfall&quot; Methodlogy">
    <mxGraphModel grid="1" page="1" gridSize="10" guides="1" tooltips="1" connect="1" arrows="1" fold="1" pageScale="1" pageWidth="827" pageHeight="1169" math="0" shadow="0">
      <root>
        <mxCell id="Zh1iHGCT-MvkvNDLgJsu-0" />
        <mxCell id="Zh1iHGCT-MvkvNDLgJsu-1" parent="Zh1iHGCT-MvkvNDLgJsu-0" />
        <mxCell id="Zh1iHGCT-MvkvNDLgJsu-2" value="System Req." style="rounded=0;whiteSpace=wrap;html=1;" vertex="1" parent="Zh1iHGCT-MvkvNDLgJsu-1">
          <mxGeometry x="120" y="200" width="80" height="20" as="geometry" />
        </mxCell>
        <mxCell id="Zh1iHGCT-MvkvNDLgJsu-3" value="Design" style="rounded=0;whiteSpace=wrap;html=1;" vertex="1" parent="Zh1iHGCT-MvkvNDLgJsu-1">
          <mxGeometry x="240" y="320" width="80" height="20" as="geometry" />
        </mxCell>
        <mxCell id="Zh1iHGCT-MvkvNDLgJsu-4" value="" style="html=1;shadow=0;dashed=0;align=center;verticalAlign=middle;shape=mxgraph.arrows2.bendArrow;dy=3;dx=15;notch=0;arrowHead=15;rounded=1;rotation=90;" vertex="1" parent="Zh1iHGCT-MvkvNDLgJsu-1">
          <mxGeometry x="290" y="285" width="25" height="30" as="geometry" />
        </mxCell>
        <mxCell id="Zh1iHGCT-MvkvNDLgJsu-5" value="Implementation" style="rounded=0;whiteSpace=wrap;html=1;" vertex="1" parent="Zh1iHGCT-MvkvNDLgJsu-1">
          <mxGeometry x="280" y="360" width="80" height="20" as="geometry" />
        </mxCell>
        <mxCell id="Zh1iHGCT-MvkvNDLgJsu-6" value="Verification" style="rounded=0;whiteSpace=wrap;html=1;" vertex="1" parent="Zh1iHGCT-MvkvNDLgJsu-1">
          <mxGeometry x="320" y="400" width="80" height="20" as="geometry" />
        </mxCell>
        <mxCell id="Zh1iHGCT-MvkvNDLgJsu-7" value="Operations&lt;br&gt;" style="rounded=0;whiteSpace=wrap;html=1;" vertex="1" parent="Zh1iHGCT-MvkvNDLgJsu-1">
          <mxGeometry x="360" y="435.63" width="80" height="20" as="geometry" />
        </mxCell>
        <mxCell id="Zh1iHGCT-MvkvNDLgJsu-8" value="Software Req" style="rounded=0;whiteSpace=wrap;html=1;" vertex="1" parent="Zh1iHGCT-MvkvNDLgJsu-1">
          <mxGeometry x="160" y="240" width="80" height="20" as="geometry" />
        </mxCell>
        <mxCell id="Zh1iHGCT-MvkvNDLgJsu-9" value="Analysis" style="rounded=0;whiteSpace=wrap;html=1;" vertex="1" parent="Zh1iHGCT-MvkvNDLgJsu-1">
          <mxGeometry x="200" y="280" width="80" height="20" as="geometry" />
        </mxCell>
        <mxCell id="Zh1iHGCT-MvkvNDLgJsu-10" value="Maintenance" style="rounded=0;whiteSpace=wrap;html=1;" vertex="1" parent="Zh1iHGCT-MvkvNDLgJsu-1">
          <mxGeometry x="400" y="480" width="80" height="20" as="geometry" />
        </mxCell>
        <mxCell id="Zh1iHGCT-MvkvNDLgJsu-11" value="" style="html=1;shadow=0;dashed=0;align=center;verticalAlign=middle;shape=mxgraph.arrows2.bendArrow;dy=3;dx=15;notch=0;arrowHead=15;rounded=1;rotation=90;" vertex="1" parent="Zh1iHGCT-MvkvNDLgJsu-1">
          <mxGeometry x="330" y="325" width="25" height="30" as="geometry" />
        </mxCell>
        <mxCell id="Zh1iHGCT-MvkvNDLgJsu-12" value="" style="html=1;shadow=0;dashed=0;align=center;verticalAlign=middle;shape=mxgraph.arrows2.bendArrow;dy=3;dx=15;notch=0;arrowHead=15;rounded=1;rotation=90;" vertex="1" parent="Zh1iHGCT-MvkvNDLgJsu-1">
          <mxGeometry x="370" y="365" width="25" height="30" as="geometry" />
        </mxCell>
        <mxCell id="Zh1iHGCT-MvkvNDLgJsu-13" value="" style="html=1;shadow=0;dashed=0;align=center;verticalAlign=middle;shape=mxgraph.arrows2.bendArrow;dy=3;dx=15;notch=0;arrowHead=15;rounded=1;rotation=90;" vertex="1" parent="Zh1iHGCT-MvkvNDLgJsu-1">
          <mxGeometry x="410" y="405" width="25" height="30" as="geometry" />
        </mxCell>
        <mxCell id="Zh1iHGCT-MvkvNDLgJsu-14" value="" style="html=1;shadow=0;dashed=0;align=center;verticalAlign=middle;shape=mxgraph.arrows2.bendArrow;dy=3;dx=15;notch=0;arrowHead=15;rounded=1;rotation=90;" vertex="1" parent="Zh1iHGCT-MvkvNDLgJsu-1">
          <mxGeometry x="450" y="445" width="25" height="30" as="geometry" />
        </mxCell>
        <mxCell id="Zh1iHGCT-MvkvNDLgJsu-15" value="" style="html=1;shadow=0;dashed=0;align=center;verticalAlign=middle;shape=mxgraph.arrows2.bendArrow;dy=3;dx=15;notch=0;arrowHead=15;rounded=1;rotation=90;" vertex="1" parent="Zh1iHGCT-MvkvNDLgJsu-1">
          <mxGeometry x="250" y="245" width="25" height="30" as="geometry" />
        </mxCell>
        <mxCell id="Zh1iHGCT-MvkvNDLgJsu-16" value="" style="html=1;shadow=0;dashed=0;align=center;verticalAlign=middle;shape=mxgraph.arrows2.bendArrow;dy=3;dx=15;notch=0;arrowHead=15;rounded=1;rotation=90;" vertex="1" parent="Zh1iHGCT-MvkvNDLgJsu-1">
          <mxGeometry x="210" y="205" width="25" height="30" as="geometry" />
        </mxCell>
        <mxCell id="Zh1iHGCT-MvkvNDLgJsu-17" value="" style="html=1;shadow=0;dashed=0;align=center;verticalAlign=middle;shape=mxgraph.arrows2.bendArrow;dy=3;dx=15;notch=0;arrowHead=15;rounded=1;rotation=-90;" vertex="1" parent="Zh1iHGCT-MvkvNDLgJsu-1">
          <mxGeometry x="165" y="270.5" width="62.25" height="64.5" as="geometry" />
        </mxCell>
        <mxCell id="Zh1iHGCT-MvkvNDLgJsu-18" value="" style="html=1;shadow=0;dashed=1;align=center;verticalAlign=middle;shape=mxgraph.arrows2.bendArrow;dy=3;dx=15;notch=0;arrowHead=15;rounded=1;rotation=-90;strokeColor=#CC0000;" vertex="1" parent="Zh1iHGCT-MvkvNDLgJsu-1">
          <mxGeometry x="200.81" y="303.27" width="34.56" height="108.4" as="geometry" />
        </mxCell>
        <mxCell id="Zh1iHGCT-MvkvNDLgJsu-19" value="" style="html=1;shadow=0;dashed=1;align=center;verticalAlign=middle;shape=mxgraph.arrows2.bendArrow;dy=3;dx=15;notch=0;arrowHead=15;rounded=1;rotation=-90;strokeColor=#CC0000;" vertex="1" parent="Zh1iHGCT-MvkvNDLgJsu-1">
          <mxGeometry x="218.86" y="318.72" width="40.18" height="150.12" as="geometry" />
        </mxCell>
        <mxCell id="Zh1iHGCT-MvkvNDLgJsu-20" value="" style="html=1;shadow=0;dashed=1;align=center;verticalAlign=middle;shape=mxgraph.arrows2.bendArrow;dy=3;dx=15;notch=0;arrowHead=15;rounded=1;rotation=-90;strokeColor=#CC0000;" vertex="1" parent="Zh1iHGCT-MvkvNDLgJsu-1">
          <mxGeometry x="235.63" y="339.88" width="39.75" height="183.25" as="geometry" />
        </mxCell>
        <mxCell id="Zh1iHGCT-MvkvNDLgJsu-21" value="" style="html=1;shadow=0;dashed=1;align=center;verticalAlign=middle;shape=mxgraph.arrows2.bendArrow;dy=3;dx=15;notch=0;arrowHead=15;rounded=1;rotation=-90;strokeColor=#CC0000;" vertex="1" parent="Zh1iHGCT-MvkvNDLgJsu-1">
          <mxGeometry x="257.37" y="357.87" width="42.5" height="229.5" as="geometry" />
        </mxCell>
        <mxCell id="Zh1iHGCT-MvkvNDLgJsu-22" value="" style="html=1;shadow=0;dashed=1;align=center;verticalAlign=middle;shape=mxgraph.arrows2.bendArrow;dy=3;dx=15;notch=0;arrowHead=15;rounded=1;rotation=-90;strokeColor=#CC0000;" vertex="1" parent="Zh1iHGCT-MvkvNDLgJsu-1">
          <mxGeometry x="298.43" y="398.93" width="42.5" height="147.37" as="geometry" />
        </mxCell>
        <mxCell id="Zh1iHGCT-MvkvNDLgJsu-23" value="" style="html=1;shadow=0;dashed=1;align=center;verticalAlign=middle;shape=mxgraph.arrows2.bendArrow;dy=3;dx=15;notch=0;arrowHead=15;rounded=1;rotation=-90;strokeColor=#CC0000;" vertex="1" parent="Zh1iHGCT-MvkvNDLgJsu-1">
          <mxGeometry x="277.15999999999997" y="381.11" width="39.75" height="100.78" as="geometry" />
        </mxCell>
        <mxCell id="Zh1iHGCT-MvkvNDLgJsu-24" value="" style="html=1;shadow=0;dashed=0;align=center;verticalAlign=middle;shape=mxgraph.arrows2.bendArrow;dy=3;dx=15;notch=0;arrowHead=15;rounded=1;rotation=-90;" vertex="1" parent="Zh1iHGCT-MvkvNDLgJsu-1">
          <mxGeometry x="247.5" y="348" width="62.25" height="69.5" as="geometry" />
        </mxCell>
        <mxCell id="Zh1iHGCT-MvkvNDLgJsu-25" value="&lt;i&gt;Note:&lt;br&gt;A common complaint of the methodology: &lt;br&gt;Missing feedback loops&lt;/i&gt;" style="text;html=1;strokeColor=none;fillColor=none;align=left;verticalAlign=middle;whiteSpace=wrap;rounded=0;dashed=1;fontSize=12;labelBackgroundColor=none;" vertex="1" parent="Zh1iHGCT-MvkvNDLgJsu-1">
          <mxGeometry x="120" y="495.62" width="260" height="44.38" as="geometry" />
        </mxCell>
      </root>
    </mxGraphModel>
  </diagram>
</mxfile>
